<svg xmlns:mydata="http://www.w3.org/2000/svg" mydata:contrastcolor="228848" mydata:template="BlackAndHighlightColorHex1" mydata:presentation="2.5" mydata:layouttype="undefined" mydata:specialfontid="undefined" mydata:id1="191" mydata:id2="113" mydata:companyname="Link Saver" mydata:companytagline="" version="1.1" xmlns="http://www.w3.org/2000/svg" xmlns:xlink="http://www.w3.org/1999/xlink" viewBox="0 0 550 470"><g fill="#e3e48d" fill-rule="evenodd" stroke="none" stroke-width="1" stroke-linecap="butt" stroke-linejoin="miter" stroke-miterlimit="10" stroke-dasharray="" stroke-dashoffset="0" font-family="none" font-weight="none" font-size="none" text-anchor="none" style="mix-blend-mode: normal"><g data-paper-data="{&quot;isGlobalGroup&quot;:true}"><path d="M275.00003,115c-66.27427,0 -120.00003,53.72584 -120.00003,120.00002c0,66.27427 53.72576,119.99998 120.00003,119.99998c66.27427,0 119.99998,-53.72571 119.99998,-119.99998c0,-66.27418 -53.72571,-120.00002 -119.99998,-120.00002zM308.14861,183.45524c9.16051,-0.02463 16.63046,7.35718 16.65076,16.45851l0.02203,7.33688c0.02247,9.10132 -7.406,16.52115 -16.56651,16.54232l-9.90967,0.02333c-0.31193,8.81229 -7.55981,15.9137 -16.50517,15.93617l-39.98862,0.1011c-9.16138,0.02419 -16.63132,-7.36064 -16.65465,-16.4598l-0.01815,-7.33515c-0.02549,-9.09873 7.406,-16.52201 16.56651,-16.54664l9.90621,-0.02419c0.31236,-8.81142 7.55722,-15.90636 16.50862,-15.93055zM298.32319,215.26018l9.9101,-0.02765c4.40506,-0.00518 7.98623,-3.58117 7.97241,-7.95858l-0.01815,-7.33601c-0.0095,-4.38476 -3.60839,-7.94562 -8.01777,-7.92963l-39.98862,0.10066c-4.2033,0.01383 -7.60906,3.26664 -7.9171,7.35761l21.47102,-0.05746c8.94924,-0.02031 16.23125,7.03877 16.58812,15.85106zM281.75538,207.96651l-21.47015,0.0553c0.32921,4.0927 3.75225,7.32348 7.95858,7.31571l21.46972,-0.05616c-0.33526,-4.09184 -3.75485,-7.32651 -7.95815,-7.31484zM241.83027,231.29788l39.98127,-0.10196c4.20762,-0.01037 7.61641,-3.26319 7.92531,-7.35589l-21.46972,0.05271c-8.95227,0.02765 -16.23989,-7.03531 -16.59244,-15.8476l-9.89973,0.02765c-4.41673,0.01037 -7.99444,3.57987 -7.9871,7.96593l0.02117,7.33169c0.01383,4.37871 3.60882,7.93741 8.02123,7.92747zM236.39134,286.05357h4.09443v-6.26413l3.64381,-4.094l5.44541,10.35812h4.7494l-7.36971,-13.51071l7.36971,-8.18842h-4.99523l-8.8434,10.11272v-21.16729h-4.09443zM282.45139,277.16914c0,-3.23424 -1.88326,-4.91314 -7.12388,-5.60916c-6.96014,-0.94141 -9.82628,-3.84817 -9.82628,-8.59757v-0.45062c0,-5.44498 4.01234,-8.88444 10.5223,-8.88444c7.32867,0 10.48125,3.6032 10.48125,10.5223v0.98246h-4.25817c0,-5.40437 -1.80117,-7.73781 -6.18204,-7.73781h-0.28644c-3.4805,0 -5.89603,1.88326 -5.89603,4.79001v0.32749c0,2.98884 1.47412,4.7494 6.87848,5.48646c6.96014,0.94141 10.07168,3.60277 10.07168,8.8434v0.45062c0,5.81351 -4.05338,9.25297 -10.80874,9.25297c-7.08284,0 -10.84978,-3.68486 -10.84978,-10.68604v-0.40957h4.25817c0,5.07688 2.57927,7.32867 6.42787,7.32867h0.32749c3.8486,0 6.26413,-2.047 6.26413,-5.28167zM201.4269,286.05357v-3.76651h-12.89695v-28.16848h-4.258v31.93499zM209.16471,255.18313h-4.66731v4.66774h4.66731zM231.64237,271.02814v15.02543h-4.05338v-14.37046c0,-2.7024 -1.43307,-4.21713 -4.09443,-4.21713c-2.9478,0 -4.50357,1.71951 -5.24063,2.90675v15.68084h-4.094v-15.5577l-0.28687,-6.14143h3.52111l0.45062,2.98884c1.30994,-1.96534 3.60277,-3.48007 7.16493,-3.48007c4.54418,0 6.63265,3.15258 6.63265,7.16493zM304.3147,286.05357h3.56216l-0.28687,-6.14099v-7.90198c0,-4.91314 -1.96534,-8.14738 -8.31112,-8.14738c-6.6737,0 -8.31156,3.8486 -8.31156,7.28762v0.36853h3.88964c0,-2.33387 0.81914,-4.38087 4.29921,-4.38087c3.31633,0 4.33983,1.63743 4.33983,4.8721v0.32749l-6.01873,0.94184c-3.88964,0.57288 -7.32867,2.00595 -7.32867,6.71431v0.40957c0,3.48007 2.08804,6.14143 6.38726,6.14143c3.52068,0 5.8956,-1.43307 7.36928,-3.27572zM351.23451,276.76v-2.04743c0,-6.10038 -2.90675,-10.84935 -9.41671,-10.84935c-6.55057,0 -9.58045,4.74897 -9.58045,10.84935v0.98289c0,6.10038 2.98884,10.84978 9.78524,10.84978c6.18204,0 9.21192,-3.64424 9.21192,-7.28806v-0.16374h-3.93025c0,1.96534 -1.63786,4.17608 -5.24063,4.17608c-3.7259,0 -5.5275,-2.29283 -5.69124,-6.50952zM359.13649,267.1385c1.22829,-1.84264 3.1932,-3.27528 5.97768,-3.27528c0.2454,0 0.53184,0.04061 0.61393,0.04061v3.93069h-0.73706c-3.0705,0 -4.62627,1.59681 -5.40437,2.78406v15.43501h-4.094v-15.5577l-0.28687,-6.14143h3.52111zM204.78384,286.05357h4.09443v-21.69913h-4.09443zM323.06646,286.05357h-5.60916l-7.12388,-21.69913h4.29878l5.64977,18.13741l5.60916,-18.13741h4.29921zM341.73571,267.1385c3.52111,0 5.20001,2.41553 5.36376,6.50996h-10.72708c0.12313,-4.09443 1.84264,-6.50996 5.36333,-6.50996zM297.84579,283.10578c-2.57927,0 -3.64381,-1.55577 -3.64381,-3.1932v-0.32792c0,-2.047 1.35098,-3.27528 3.88964,-3.68442l5.40437,-0.9008v5.28124c-0.73706,1.10559 -2.41553,2.8251 -5.6502,2.8251z" data-paper-data="{&quot;isLogoContainer&quot;:true}"></path></g></g></svg>